<svg width="24" height="24" viewBox="0 0 24 24" fill="none" xmlns="http://www.w3.org/2000/svg">
<path d="M12.2082 21.057C10.1272 21.057 8.17089 20.2467 6.69886 18.7759C5.22804 17.3038 4.4165 15.3475 4.4165 13.2654C4.4165 11.1832 5.22804 9.22687 6.69886 7.75484C7.16756 7.28615 7.92515 7.28615 8.39385 7.75484C8.86255 8.22354 8.86255 8.98113 8.39385 9.44983C7.37494 10.4699 6.81394 11.8245 6.81394 13.2654C6.81394 14.7062 7.37494 16.062 8.39385 17.0809C9.41276 18.0998 10.7661 18.6596 12.2082 18.6596C13.6502 18.6596 15.0036 18.0986 16.0225 17.0809C17.0426 16.062 17.6024 14.7074 17.6024 13.2654C17.6024 11.8233 17.0414 10.4687 16.0225 9.44983C15.5538 8.98113 15.5538 8.22354 16.0225 7.75484C16.4912 7.28615 17.2488 7.28615 17.7175 7.75484C19.1883 9.22807 19.9998 11.1844 19.9998 13.2654C19.9998 15.3463 19.1883 17.3038 17.7175 18.7759C16.2455 20.2467 14.2891 21.057 12.2082 21.057Z" fill="white"/>
<path d="M12.208 11.9791C11.5451 11.9791 11.0093 11.4421 11.0093 10.7804V4.78679C11.0093 4.1251 11.5451 3.58807 12.208 3.58807C12.8709 3.58807 13.4067 4.1251 13.4067 4.78679V10.7804C13.4067 11.4421 12.8709 11.9791 12.208 11.9791Z" fill="white"/>
</svg>
